# xmcd
#
# Track frame offsets:
#	150
#	9630
#	19006
#	29689
#	44569
#	57501
#	66699
#	77699
#	88262
#	100530
#	112347
#	126940
#	134894
#	146715
#
# Disc length: 2112 seconds
# Revision: 0
# Processed by: cddbd v1.4PL0 Copyright (c) Steve Scherf et al.
# Submitted via: cdrLabel 6.0
#
DISCID=db083e0e
DTITLE=Red Hot 'N' Blue - Still Jumpin' Around
DYEAR=1900
DGENRE=
TTITLE0=Things Are Gonna Be Different
TTITLE1=Who
TTITLE2=There's No Need To Tell Me
TTITLE3=Kiss Me Baby
TTITLE4=Sinful Woman
TTITLE5=Hold On To What You've Got
TTITLE6=What Did You Say
TTITLE7=Gimme Some Lovin'
TTITLE8=Me And You Are Through
TTITLE9=Phone Call
TTITLE10=I'm In A Daze
TTITLE11=I Had A Real Good Time
TTITLE12=Still Jumpin' around
TTITLE13=Big Sandy (98)
EXTD=
EXTT0=
EXTT1=
EXTT2=
EXTT3=
EXTT4=
EXTT5=
EXTT6=
EXTT7=
EXTT8=
EXTT9=
EXTT10=
EXTT11=
EXTT12=
EXTT13=
PLAYORDER=
